<svg xmlns="http://www.w3.org/2000/svg" xmlns:xlink="http://www.w3.org/1999/xlink" width="54" height="74" viewBox="0 0 54 74">
    <defs>
        <path id="a" d="M.346.392h4.702v10.604H.346z"/>
        <path id="c" d="M.573.455h2.515v3.972H.573z"/>
        <path id="e" d="M0 73.755h53.397V0H0z"/>
    </defs>
    <g fill="none" fill-rule="evenodd">
        <path fill="#FEFEFE" d="M7.63 52.515c.177.03.266.134.266.312v.939c0 .163-.074.238-.222.238H4.628c-1.123 0-1.863.283-2.203.835-.34.55-.503 1.638-.503 3.276 0 1.623.163 2.726.503 3.276.34.552 1.08.82 2.203.82h2.056v-3.783c0-.165.074-.239.221-.239h1.346c.147 0 .222.074.222.239v4.334c0 .149-.016.253-.06.327-.266.522-1.522.79-3.785.79-1.878 0-2.972-.312-3.697-1.222-.71-.908-.93-2.234-.93-4.542 0-2.309.22-3.634.93-4.543.725-.939 1.804-1.236 3.697-1.236 1.345 0 2.336.06 3.002.179M14.334 55.658c.163.044.237.134.237.268v.907c0 .165-.089.24-.251.224h-1.346c-.902 0-1.153.15-1.153.804v5.72c0 .15-.074.224-.222.224h-1.346c-.147 0-.222-.074-.222-.224V57.4c0-.834.311-1.386.858-1.624.547-.237.976-.283 1.64-.283.844 0 1.436.06 1.805.165M20.112 60.319h-2.04c-.814 0-1.139.268-1.139.998 0 .834.37 1.058 1.493 1.058.71 0 1.272-.06 1.686-.164v-1.892zm1.79-2.383v5.184c0 .223-.104.357-.297.43-.754.225-1.863.33-3.326.33-1.14 0-1.938-.165-2.41-.478-.474-.327-.71-.997-.71-2.011 0-1.801.872-2.368 2.809-2.368h2.144v-.773c0-.835-.488-1.193-1.671-1.193h-2.425c-.177 0-.222-.045-.222-.224v-.907c0-.18.045-.194.207-.239.695-.134 1.509-.194 2.44-.194 2.529 0 3.46.776 3.46 2.443zM25.106 55.568c.147 0 .221.075.221.224v7.789c0 .15-.074.223-.221.223H23.76c-.147 0-.221-.074-.221-.223v-7.79c0-.148.074-.223.221-.223h1.346zm.4-2.353c0 .685-.356 1.027-1.066 1.027-.695 0-1.08-.372-1.08-1.027 0-.656.385-1.028 1.08-1.028.71 0 1.065.343 1.065 1.028zM33.286 56.104c.591.492.739 1.326.739 2.919v4.558c0 .15-.074.224-.236.224h-1.331c-.148 0-.222-.074-.222-.224v-4.23c0-1.132-.045-1.668-.355-1.966-.163-.163-.325-.253-.503-.284a6.092 6.092 0 0 0-.872-.044h-1.7v6.524c0 .15-.074.224-.222.224h-1.36c-.134 0-.208-.074-.208-.224V55.97c0-.194.074-.209.207-.238.784-.164 1.878-.239 3.313-.239 1.478 0 2.173.09 2.75.611M40.24 60.319h-2.041c-.813 0-1.139.268-1.139.998 0 .834.37 1.058 1.493 1.058.71 0 1.273-.06 1.686-.164v-1.892zm1.788-2.383v5.184c0 .223-.103.357-.295.43-.754.225-1.863.33-3.327.33-1.14 0-1.937-.165-2.41-.478-.473-.327-.71-.997-.71-2.011 0-1.801.872-2.368 2.81-2.368h2.143v-.773c0-.835-.488-1.193-1.67-1.193h-2.425c-.178 0-.222-.045-.222-.224v-.907c0-.18.044-.194.206-.239.696-.134 1.509-.194 2.44-.194 2.53 0 3.46.776 3.46 2.443zM45.787 53.289c.163-.044.252.014.252.209v2.085h1.464c.162 0 .236.074.236.223v.939c0 .163-.074.238-.236.238h-1.464v4.542c0 .656.192.79.916.79h.65c.164 0 .252.075.252.209v.982c0 .15-.073.239-.221.269-.385.074-.74.104-1.05.104-.591 0-.828 0-1.316-.119-.651-.18-.976-.61-1.035-1.698v-5.079h-.843c-.163 0-.237-.075-.237-.238v-.939c0-.149.074-.223.237-.223h.843V53.87c0-.134.074-.209.207-.238l1.345-.343z"/>
        <g transform="translate(48.349 52.883)">
            <mask id="b" fill="#fff">
                <use xlink:href="#a"/>
            </mask>
            <path fill="#FEFEFE" d="M2.978.406c.163-.044.251.015.251.209V2.7h1.464c.163 0 .236.075.236.223v.939c0 .164-.073.238-.236.238H3.23v4.542c0 .657.193.79.917.79h.65c.164 0 .252.075.252.209v.983c0 .149-.073.238-.222.268a5.59 5.59 0 0 1-1.05.104c-.59 0-.828 0-1.315-.119-.651-.18-.976-.61-1.036-1.698V4.1H.582c-.162 0-.236-.074-.236-.238v-.939c0-.148.074-.223.236-.223h.843V.987c0-.134.075-.208.207-.238L2.978.406z" mask="url(#b)"/>
        </g>
        <path fill="#FEFEFE" d="M4.904 69.75l-.09.484a.98.98 0 0 0-.246-.033.518.518 0 0 0-.42.193c-.107.13-.19.33-.251.602v1.615h-.49v-2.828h.42l.048.574a1.08 1.08 0 0 1 .304-.478.674.674 0 0 1 .448-.16c.1 0 .192.01.277.032M7.076 70.969c0-.279-.055-.492-.166-.64-.11-.146-.275-.219-.495-.219-.402 0-.62.297-.656.89h1.317v-.031zm.474.397H5.76c.02.312.1.54.234.687a.68.68 0 0 0 .522.22c.135 0 .26-.02.373-.06.114-.038.233-.1.357-.187l.213.295a1.543 1.543 0 0 1-.98.355c-.391 0-.696-.13-.914-.387-.219-.257-.328-.611-.328-1.063 0-.293.047-.553.141-.78a1.23 1.23 0 0 1 .405-.535c.177-.128.383-.193.621-.193.373 0 .659.124.858.37.2.247.298.589.298 1.025 0 .083-.003.167-.01.253zM9.837 69.79c.139.049.272.127.4.234l-.235.311a1.204 1.204 0 0 0-.29-.158.922.922 0 0 0-.312-.051.61.61 0 0 0-.53.274c-.126.183-.19.453-.19.81 0 .359.063.622.188.792a.62.62 0 0 0 .532.255c.11 0 .212-.017.304-.05.092-.035.195-.09.309-.165l.224.322a1.33 1.33 0 0 1-.858.312c-.38 0-.68-.13-.898-.387-.219-.257-.328-.613-.328-1.068 0-.3.05-.564.15-.788.099-.227.24-.402.423-.527s.4-.187.653-.187c.167 0 .32.023.458.072"/>
        <g transform="translate(10.047 69.327)">
            <mask id="d" fill="#fff">
                <use xlink:href="#c"/>
            </mask>
            <path fill="#FEFEFE" d="M2.15 3.3c-.11.33-.263.59-.46.78-.198.192-.48.308-.846.347L.792 4.04c.184-.032.332-.078.442-.139a.779.779 0 0 0 .263-.233c.066-.095.127-.223.184-.384h-.165L.573.455h.522l.751 2.469.736-2.469h.506L2.15 3.3z" mask="url(#d)"/>
        </g>
        <path fill="#FEFEFE" d="M15.138 69.79c.14.049.272.127.4.234l-.234.311a1.216 1.216 0 0 0-.29-.158.922.922 0 0 0-.312-.051.609.609 0 0 0-.53.274c-.127.183-.19.453-.19.81 0 .359.063.622.187.792a.62.62 0 0 0 .533.255c.11 0 .211-.017.303-.05.093-.035.196-.09.31-.165l.223.322a1.33 1.33 0 0 1-.857.312c-.38 0-.68-.13-.898-.387-.219-.257-.329-.613-.329-1.068 0-.3.05-.564.15-.788.1-.227.24-.402.424-.527.182-.125.4-.187.653-.187.167 0 .32.023.457.072M16.314 72.512c-.104-.11-.157-.262-.157-.46v-3.407l.49-.06v3.457c0 .08.014.137.04.172.027.036.072.053.137.053.067 0 .127-.01.181-.031l.128.343a.79.79 0 0 1-.39.097.568.568 0 0 1-.429-.164"/>
        <mask id="f" fill="#fff">
            <use xlink:href="#e"/>
        </mask>
        <path fill="#FEFEFE" d="M17.738 72.611h.49v-2.828h-.49v2.828zm.49-4.09a.327.327 0 0 1 .097.242.32.32 0 0 1-.096.239.343.343 0 0 1-.25.093c-.1 0-.182-.03-.246-.093a.32.32 0 0 1-.096-.239.328.328 0 0 1 .341-.338c.103 0 .187.031.25.096zM21.078 69.949c.144.154.216.365.216.634v2.028h-.49v-1.96c0-.2-.038-.341-.112-.423-.075-.082-.185-.124-.33-.124-.15 0-.281.043-.395.13a1.33 1.33 0 0 0-.32.37v2.007h-.49v-2.828h.42l.043.418c.1-.15.223-.268.37-.354a.948.948 0 0 1 .488-.128c.256 0 .456.076.6.23M22.647 70.247a.674.674 0 0 0-.152.46c0 .192.05.347.154.463.103.116.25.175.437.175.192 0 .339-.057.44-.17.101-.113.152-.27.152-.474 0-.419-.201-.628-.602-.628-.185 0-.328.058-.43.174zm1.857-.336a1.476 1.476 0 0 1-.352.07 5.486 5.486 0 0 1-.469.016c.33.15.495.389.495.714a.901.901 0 0 1-.287.692c-.192.18-.453.27-.783.27a1.16 1.16 0 0 1-.357-.055.292.292 0 0 0-.102.116.315.315 0 0 0-.037.147c0 .154.123.23.368.23h.447c.188 0 .355.036.501.103a.825.825 0 0 1 .339.28.7.7 0 0 1 .12.401.719.719 0 0 1-.336.637c-.224.148-.55.223-.98.223-.303 0-.542-.032-.717-.094a.683.683 0 0 1-.376-.282.94.94 0 0 1-.112-.484h.442c0 .115.022.206.065.272.042.066.118.116.229.15.11.034.266.05.468.05.295 0 .506-.036.632-.11a.358.358 0 0 0 .189-.33.34.34 0 0 0-.149-.3c-.1-.067-.239-.101-.416-.101h-.442c-.238 0-.419-.052-.541-.154a.48.48 0 0 1-.184-.384c0-.093.027-.182.08-.268a.773.773 0 0 1 .229-.23.882.882 0 0 1-.36-.32.88.88 0 0 1-.114-.464.94.94 0 0 1 .53-.862c.165-.084.349-.126.552-.126.22.004.405-.005.554-.024a1.84 1.84 0 0 0 .37-.08c.098-.035.217-.084.36-.148l.144.445zM26.422 72.611h.49v-2.828h-.49v2.828zm.49-4.09a.327.327 0 0 1 .096.242.32.32 0 0 1-.096.239.343.343 0 0 1-.25.093c-.1 0-.181-.03-.245-.093a.32.32 0 0 1-.096-.239c0-.097.032-.178.096-.242a.327.327 0 0 1 .245-.096c.103 0 .186.031.25.096zM29.762 69.949c.144.154.216.365.216.634v2.028h-.49v-1.96c0-.2-.038-.341-.112-.423-.075-.082-.185-.124-.331-.124a.638.638 0 0 0-.395.13 1.33 1.33 0 0 0-.32.37v2.007h-.49v-2.828h.422l.042.418c.1-.15.223-.268.37-.354a.947.947 0 0 1 .488-.128c.256 0 .456.076.6.23M32.292 72.18c.106-.07.21-.175.309-.315V70.48a1.075 1.075 0 0 0-.296-.276.676.676 0 0 0-.354-.094.567.567 0 0 0-.503.274c-.12.182-.179.454-.179.815 0 .365.055.637.165.816.11.18.268.27.474.27a.688.688 0 0 0 .384-.106zm.8-3.535v3.966h-.433l-.047-.392a1.017 1.017 0 0 1-.346.336.904.904 0 0 1-.464.12.9.9 0 0 1-.78-.397c-.187-.265-.28-.62-.28-1.068 0-.29.044-.547.132-.773.09-.225.217-.401.385-.528a.944.944 0 0 1 .585-.19c.289 0 .54.116.757.348v-1.482l.49.06zM36.117 72.61h-.422l-.037-.439c-.107.176-.229.303-.367.384a.99.99 0 0 1-.507.121c-.245 0-.437-.076-.576-.226-.138-.15-.207-.363-.207-.639v-2.029h.49v1.976c0 .193.034.33.102.41.067.081.177.121.33.121.273 0 .508-.163.703-.488v-2.019h.49v2.829zM38.39 69.799c.153.054.299.134.437.241l-.208.312a1.695 1.695 0 0 0-.365-.183 1.125 1.125 0 0 0-.365-.06.64.64 0 0 0-.378.1.315.315 0 0 0-.14.272c0 .114.045.203.132.268.087.064.244.127.471.188.313.079.547.186.701.322.155.136.232.321.232.557 0 .28-.107.493-.322.64-.215.147-.477.22-.786.22-.427 0-.78-.123-1.06-.37l.26-.302c.238.183.5.275.79.275.183 0 .33-.039.439-.116a.364.364 0 0 0 .162-.314.41.41 0 0 0-.059-.233.476.476 0 0 0-.202-.156 2.806 2.806 0 0 0-.42-.143c-.3-.078-.515-.184-.649-.317a.68.68 0 0 1-.2-.503c0-.147.044-.28.131-.4a.846.846 0 0 1 .363-.28c.154-.066.327-.099.52-.099.191 0 .364.027.516.08M41.163 72.482a1.076 1.076 0 0 1-.629.194c-.239 0-.424-.07-.557-.207-.134-.138-.2-.338-.2-.599v-1.706h-.49v-.382h.49v-.638l.49-.06v.698h.666l-.053.382h-.613v1.685c0 .146.026.253.077.32.052.065.138.098.259.098.11 0 .234-.037.373-.113l.187.328zM43.215 69.75l-.09.484a.976.976 0 0 0-.246-.033.52.52 0 0 0-.42.193c-.107.13-.191.33-.251.602v1.615h-.49v-2.828h.42l.048.574a1.08 1.08 0 0 1 .304-.478.674.674 0 0 1 .448-.16c.1 0 .192.01.277.032M43.797 72.611h.49v-2.828h-.49v2.828zm.49-4.09a.33.33 0 0 1 .097.242.322.322 0 0 1-.096.239.344.344 0 0 1-.251.093.334.334 0 0 1-.245-.093.32.32 0 0 1-.096-.239c0-.097.032-.178.096-.242a.326.326 0 0 1 .245-.096c.102 0 .186.031.25.096zM46.88 70.969c0-.279-.054-.492-.165-.64-.11-.146-.276-.219-.496-.219-.401 0-.62.297-.655.89h1.316v-.031zm.474.397h-1.79c.02.312.1.54.234.687a.68.68 0 0 0 .523.22c.135 0 .258-.02.373-.06.113-.038.232-.1.356-.187l.214.295a1.543 1.543 0 0 1-.98.355c-.391 0-.696-.13-.915-.387-.218-.257-.327-.611-.327-1.063 0-.293.047-.553.141-.78.094-.228.23-.406.405-.535.176-.128.382-.193.621-.193.373 0 .659.124.858.37.199.247.298.589.298 1.025 0 .083-.003.167-.01.253zM49.474 69.799c.152.054.298.134.436.241l-.208.312a1.678 1.678 0 0 0-.365-.183 1.128 1.128 0 0 0-.364-.06.643.643 0 0 0-.379.1.316.316 0 0 0-.139.272c0 .114.044.203.131.268.087.064.245.127.471.188.313.079.547.186.702.322.154.136.231.321.231.557 0 .28-.108.493-.322.64-.215.147-.477.22-.786.22-.427 0-.78-.123-1.06-.37l.26-.302c.239.183.501.275.79.275.183 0 .33-.039.439-.116a.364.364 0 0 0 .163-.314.416.416 0 0 0-.06-.233.474.474 0 0 0-.202-.156 2.794 2.794 0 0 0-.42-.143c-.3-.078-.515-.184-.648-.317a.68.68 0 0 1-.2-.503c0-.147.043-.28.13-.4a.852.852 0 0 1 .363-.28c.154-.066.328-.099.52-.099.191 0 .363.027.517.08" mask="url(#f)"/>
        <path fill="#34D9C3" d="M44.001 33.036l-8.734 5.12a.188.188 0 0 1-.187 0L18.25 28.37a.184.184 0 0 0-.187 0l-8.761 5.115v8.651c0 .97.78 1.755 1.742 1.755h31.306c.963 0 1.743-.785 1.743-1.755v-9.264a.19.19 0 0 1-.093.163" mask="url(#f)"/>
        <path fill="#34D9C3" d="M42.352 0H11.045c-.962 0-1.742.786-1.742 1.755v29.687a.19.19 0 0 1 .093-.163l7.836-4.574V13.954c0-.203.164-.368.366-.368h1.117c.202 0 .366.165.366.368v12.75l15.994 9.3c.058.034.13.034.187 0l8.832-5.178V1.756c0-.97-.78-1.756-1.742-1.756" mask="url(#f)"/>
    </g>
</svg>
