<svg xmlns="http://www.w3.org/2000/svg" width="44" height="44" viewBox="0 0 44 44">
    <g fill="none" fill-rule="evenodd">
        <circle cx="22" cy="22" r="22" fill="#34D9C3"/>
        <path fill="#FFF" d="M17.2 20.912a13.84 13.84 0 0 0 2.496 3.392 13.84 13.84 0 0 0 3.392 2.496l1.963-1.963a.825.825 0 0 1 .426-.256.727.727 0 0 1 .491.043c.939.327 1.991.49 3.157.49.242 0 .448.086.619.257.17.17.256.377.256.618v3.136a.843.843 0 0 1-.256.619.843.843 0 0 1-.619.256c-2.048 0-4.01-.398-5.888-1.195a15.065 15.065 0 0 1-4.8-3.242 15.065 15.065 0 0 1-3.242-4.8A14.925 14.925 0 0 1 14 14.875c0-.242.085-.448.256-.619a.843.843 0 0 1 .619-.256h3.136c.241 0 .448.085.618.256.171.17.256.377.256.619 0 1.166.164 2.218.491 3.157.043.156.05.32.021.49a.71.71 0 0 1-.234.427L17.2 20.912z"/>
    </g>
</svg>
