<svg xmlns="http://www.w3.org/2000/svg" width="29" height="33" viewBox="0 0 29 33">
    <g fill="none" fill-rule="evenodd">
        <path stroke="#34D9C3" d="M14.5 1L28 8.75v15.5L14.5 32 1 24.25V8.75z"/>
        <path fill="#FFF" fill-rule="nonzero" d="M10.038 11.744c.539.184 1.124.16 1.639-.092l.28-.137a1.54 1.54 0 0 1 1.194-.07l5.29 1.791c-.047.23-.141.597-.445.78-.258.161-.632.184-1.1.023l-2.317-.78a.282.282 0 0 0-.234.023.286.286 0 0 0-.14.184c0 .023-.328 1.239-1.405 1.79-.679.367-1.498.367-2.48.046-.141-.046-.305.023-.352.16a.271.271 0 0 0 .164.345 4.336 4.336 0 0 0 1.474.252c.539 0 1.007-.115 1.451-.344.96-.505 1.405-1.4 1.592-1.86l2.036.69c.655.229 1.194.183 1.592-.093.655-.459.702-1.377.702-1.4 0-.114-.07-.229-.188-.275l-5.5-1.859a2.185 2.185 0 0 0-1.614.092l-.281.138a1.54 1.54 0 0 1-1.194.068l-.538-.206-2.809-.941a.231.231 0 0 0-.21.023c-.07.023-.117.092-.14.16L4.14 17.023a.271.271 0 0 0 .164.344l2.809.941c.023 0 .07.023.093.023.047 0 .094 0 .117-.023.07-.023.117-.092.14-.16l2.271-6.496.304.092zm-2.995 5.967l-2.294-.757 2.177-6.243 2.293.758-2.176 6.242zm18.793-1.032l-3.206-6.427c-.024-.068-.094-.114-.164-.137a.231.231 0 0 0-.21.023l-2.669 1.285a.265.265 0 0 0-.117.367l3.09 6.243-1.03.918a11.692 11.692 0 0 1-2.973 1.974l-5.102 2.478a.586.586 0 0 1-.772-.252.564.564 0 0 1 .257-.758l.07-.023 2.81-1.354a.265.265 0 0 0 .116-.367c-.07-.138-.234-.183-.374-.115l-2.856 1.377-1.357.643a.586.586 0 0 1-.772-.252.566.566 0 0 1-.024-.436.587.587 0 0 1 .304-.322l1.077-.505 3.043-1.469a.265.265 0 0 0 .117-.367c-.07-.137-.234-.183-.375-.114l-4.634 2.157a.586.586 0 0 1-.772-.253.564.564 0 0 1 .257-.757l1.826-.872 2.364-1.125a.265.265 0 0 0 .117-.367c-.07-.138-.234-.183-.375-.115l-3.58 1.722-.094.046a.586.586 0 0 1-.773-.253.564.564 0 0 1 .258-.757l1.942-.941a.265.265 0 0 0 .117-.367c-.07-.138-.234-.184-.374-.115l-1.943.94a1.103 1.103 0 0 0-.515 1.493c.117.206.281.367.469.482-.328.275-.422.78-.211 1.239.187.39.608.62 1.03.62.046 0 .093 0 .14-.023-.047.23 0 .459.094.665.187.39.608.62 1.03.62.163 0 .327-.046.491-.115l.468-.23c-.023.184.023.39.117.574.187.39.609.62 1.03.62.164 0 .328-.046.491-.115l5.126-2.455a13.369 13.369 0 0 0 3.09-2.066l1.17-1.056 2.644-1.262c.07-.023.117-.092.14-.16.024-.024.024-.115-.023-.184zm-2.785 1.055l-2.972-5.92 2.176-1.034 2.95 5.922-2.154 1.032z"/>
    </g>
</svg>
