<svg xmlns="http://www.w3.org/2000/svg" width="29" height="33" viewBox="0 0 29 33">
    <g fill="none" fill-rule="evenodd">
        <path stroke="#34D9C3" d="M14.5 1L28 8.75v15.5L14.5 32 1 24.25V8.75z"/>
        <path fill="#FFF" fill-rule="nonzero" d="M15.416 10.471c-.154 0-.263-.107-.263-.257V7.257c0-.15.11-.257.263-.257.153 0 .262.107.262.257v2.936c.022.15-.11.278-.262.278zm2.975 3.386c0 .15.109.257.262.257h2.997c.153 0 .262-.107.262-.257 0-.15-.109-.257-.262-.257h-2.997c-.153 0-.262.107-.262.257zm-9.45 0c0 .15.109.257.262.257H12.2c.153 0 .263-.107.263-.257 0-.15-.11-.257-.263-.257H9.203c-.153 0-.262.107-.262.257zm1.728-4.714a.27.27 0 0 0 .087-.193.26.26 0 0 0-.087-.193c-.11-.107-.285-.107-.372 0a.27.27 0 0 0-.088.193.26.26 0 0 0 .088.193.28.28 0 0 0 .197.086c.044-.022.131-.043.175-.086zm1.05 1.028c.11-.107.11-.278 0-.364-.11-.107-.285-.107-.372 0-.11.107-.11.279 0 .364a.28.28 0 0 0 .197.086c.087 0 .131-.043.175-.086zm.875 1.115a.27.27 0 0 0 .197-.086.27.27 0 0 0 .087-.193.26.26 0 0 0-.087-.193c-.11-.107-.285-.107-.372 0a.27.27 0 0 0-.088.193.26.26 0 0 0 .088.193.2.2 0 0 0 .175.086zm7.262-2.315a.27.27 0 0 0-.087.193.26.26 0 0 0 .087.193.28.28 0 0 0 .197.086.27.27 0 0 0 .197-.086.27.27 0 0 0 .088-.193.26.26 0 0 0-.088-.193.334.334 0 0 0-.394 0zm-1.05 1.05c-.11.108-.11.279 0 .365a.329.329 0 0 0 .197.085.27.27 0 0 0 .197-.085.243.243 0 0 0 0-.365.281.281 0 0 0-.394 0zm-.678 1.393a.27.27 0 0 0 .088-.193.26.26 0 0 0-.088-.192c-.11-.108-.284-.108-.372 0a.27.27 0 0 0-.087.192.26.26 0 0 0 .087.193.28.28 0 0 0 .197.086c.044 0 .131-.021.175-.086zm-1.203 2.765v2.185h3.084c1.028 0 1.86.815 1.86 1.822v.043l-.81 4.971c-.153 1.136-.962 1.8-2.23 1.8H12.9c-.547 0-1.05-.236-1.378-.6a.701.701 0 0 1-.635.407H8.766a.675.675 0 0 1-.679-.664V17.82c0-.364.307-.664.679-.664h2.121c.241 0 .46.129.591.322a.248.248 0 0 1 .175-.15c.088-.022 2.363-.686 2.363-2.615v-2.357a.27.27 0 0 1 .196-.257c.044-.021 1.16-.343 1.947.236.503.364.766.985.766 1.843zm-5.884 3.642a.148.148 0 0 0-.154-.15H8.766a.148.148 0 0 0-.154.15V24.1c0 .086.066.15.154.15h2.121a.148.148 0 0 0 .154-.15v-6.279zm5.621-.921c-.153 0-.262-.107-.262-.257v-2.464c0-.686-.175-1.179-.547-1.436-.416-.3-1.006-.257-1.29-.193v2.164c0 2.336-2.735 3.107-2.757 3.107a.259.259 0 0 1-.219-.042v5.378c0 .707.591 1.286 1.313 1.286h5.928c.7 0 1.553-.236 1.684-1.329l.788-4.971c0-.707-.59-1.286-1.313-1.286h-3.325v.043z"/>
    </g>
</svg>
