<svg xmlns="http://www.w3.org/2000/svg" width="29" height="33" viewBox="0 0 29 33">
    <g fill="none" fill-rule="evenodd">
        <path stroke="#34D9C3" d="M14.5 1L28 8.75v15.5L14.5 32 1 24.25V8.75z"/>
        <path fill="#FFF" fill-rule="nonzero" d="M7.746 18.285c-1.52 0-2.746 1.178-2.746 2.64 0 1.46 1.226 2.638 2.746 2.638.54 0 1.054-.165 1.495-.424A8.26 8.26 0 0 0 14.488 25a8.17 8.17 0 0 0 3.506-.777c.147-.071.22-.236.147-.377a.3.3 0 0 0-.393-.142 7.718 7.718 0 0 1-3.26.707 7.634 7.634 0 0 1-4.756-1.65c.49-.47.784-1.13.784-1.86-.024-1.414-1.25-2.616-2.77-2.616zm-2.158 2.64c0-1.132.957-2.074 2.158-2.074s2.157.919 2.157 2.073c0 1.155-.956 2.073-2.157 2.073s-2.158-.918-2.158-2.073zm6.007-11.286v.235a9.26 9.26 0 0 0-1.3.613c-2.353 1.366-3.824 3.77-3.922 6.408 0 .165.122.283.294.307.172 0 .294-.118.294-.283.098-2.45 1.447-4.665 3.629-5.937a9.839 9.839 0 0 1 1.127-.542c.344 1.06 1.398 1.837 2.624 1.837 1.52 0 2.745-1.178 2.745-2.638C17.086 8.178 15.861 7 14.341 7s-2.746 1.178-2.746 2.639zm2.77-2.074c1.177 0 2.158.92 2.158 2.074 0 1.13-.957 2.073-2.158 2.073s-2.157-.919-2.157-2.073c0-1.155.956-2.074 2.157-2.074zm4.536 3.11c-.147-.094-.32-.047-.417.095-.098.141-.05.306.098.4 2.133 1.343 3.408 3.605 3.408 6.032 0 .4-.025.777-.098 1.178a2.776 2.776 0 0 0-.638-.071c-1.52 0-2.746 1.178-2.746 2.639 0 1.46 1.226 2.638 2.746 2.638S24 22.408 24 20.948c0-1.037-.637-1.932-1.545-2.38.074-.448.123-.919.123-1.366 0-2.663-1.373-5.09-3.677-6.527zm4.486 10.25c0 1.13-.956 2.072-2.157 2.072-1.177 0-2.158-.918-2.158-2.073 0-1.154.956-2.073 2.158-2.073 1.201.023 2.157.942 2.157 2.073z"/>
    </g>
</svg>
